<svg xmlns="http://www.w3.org/2000/svg" viewBox="0 0 512 512">
  <defs>
    <linearGradient id="bg" x1="0" y1="0" x2="1" y2="1">
      <stop offset="0%" stop-color="#0088ff"/>
      <stop offset="100%" stop-color="#00ccff"/>
    </linearGradient>
  </defs>
  <rect width="512" height="512" rx="112" fill="url(#bg)"/>
  <path d="M256 96c-8 0-16 6-16 16v16c-48 10-80 52-80 100v60l-24 32c-4 5-1 12 6 12h228c7 0 10-7 6-12l-24-32v-60c0-48-32-90-80-100v-16c0-10-8-16-16-16zm0 320c22 0 40-18 40-40H216c0 22 18 40 40 40z" fill="white"/>
</svg>
